<mxfile host="app.diagrams.net" modified="2024-05-19T21:38:57.080Z" agent="Mozilla/5.0 (X11; Ubuntu; Linux x86_64; rv:125.0) Gecko/20100101 Firefox/125.0" version="24.4.4" etag="pr2ZIku8AxESDcjnq4r8" type="github">
  <diagram name="Page-1" id="08MFNVX6zApQm9hy3J3A">
    <mxGraphModel>
      <root>
        <mxCell id="0" />
        <mxCell id="1" parent="0" />
      </root>
    </mxGraphModel>
  </diagram>
</mxfile>
